<svg width="25" height="25" viewBox="0 0 25 25" fill="none" xmlns="http://www.w3.org/2000/svg">
<path fill-rule="evenodd" clip-rule="evenodd" d="M5.17113 5.66478C6.96169 3.87422 9.43792 2.76514 12.1715 2.76514C14.905 2.76514 17.3813 3.87422 19.1718 5.66478C20.9624 7.45534 22.0715 9.93158 22.0715 12.6651C22.0715 14.5981 21.4615 15.9468 20.3013 16.7061C19.2287 17.4081 17.885 17.4688 16.6477 17.3374C16.2036 17.2898 15.7595 17.2408 15.3151 17.1953C14.6583 17.15 14.3674 17.3354 14.252 17.4748C14.1365 17.6143 14.0085 17.9346 14.1754 18.5714C14.227 18.7684 14.2839 18.9493 14.3477 19.1515C14.3808 19.2567 14.4158 19.3678 14.4529 19.49C14.9168 21.0208 13.7711 22.5651 12.1715 22.5651C9.43792 22.5651 6.96169 21.4561 5.17113 19.6655C3.38057 17.8749 2.27148 15.3987 2.27148 12.6651C2.27148 9.93158 3.38057 7.45534 5.17113 5.66478ZM12.1715 4.56514C9.93448 4.56514 7.91072 5.47077 6.44392 6.93757C4.97712 8.40437 4.07148 10.4281 4.07148 12.6651C4.07148 14.9021 4.97712 16.9259 6.44392 18.3927C7.91072 19.8595 9.93448 20.7651 12.1715 20.7651C12.5632 20.7651 12.8438 20.3869 12.7302 20.012C12.7054 19.93 12.6771 19.84 12.6472 19.745C12.5764 19.5199 12.4968 19.2671 12.4341 19.0276C12.1785 18.0519 12.2551 17.0639 12.8657 16.3267C13.4762 15.5895 14.4327 15.3302 15.4389 15.3995C15.4946 15.4034 15.9003 15.4469 16.637 15.5259L16.841 15.5478C17.9158 15.6631 18.7597 15.5638 19.3156 15.2C19.8018 14.8818 20.2715 14.2201 20.2715 12.6651C20.2715 10.4281 19.3658 8.40437 17.899 6.93757C16.4323 5.47077 14.4085 4.56514 12.1715 4.56514Z" fill="#6A6B6C"/>
<path d="M13.1715 8.06514C13.1715 7.29194 13.7983 6.66514 14.5715 6.66514C15.3447 6.66514 15.9715 7.29194 15.9715 8.06514C15.9715 8.83834 15.3447 9.46514 14.5715 9.46514C13.7983 9.46514 13.1715 8.83834 13.1715 8.06514Z" fill="#6A6B6C"/>
<path d="M15.9215 12.0651C15.9215 11.2919 16.5483 10.6651 17.3215 10.6651C18.0947 10.6651 18.7215 11.2919 18.7215 12.0651C18.7215 12.8383 18.0947 13.4651 17.3215 13.4651C16.5483 13.4651 15.9215 12.8383 15.9215 12.0651Z" fill="#6A6B6C"/>
<path d="M5.62168 12.0651C5.62168 11.2919 6.24848 10.6651 7.02168 10.6651C7.79488 10.6651 8.42168 11.2919 8.42168 12.0651C8.42168 12.8383 7.79488 13.4651 7.02168 13.4651C6.24848 13.4651 5.62168 12.8383 5.62168 12.0651Z" fill="#6A6B6C"/>
<path d="M8.17148 8.06514C8.17148 7.29194 8.79829 6.66514 9.57148 6.66514C10.3447 6.66514 10.9715 7.29194 10.9715 8.06514C10.9715 8.83834 10.3447 9.46514 9.57148 9.46514C8.79829 9.46514 8.17148 8.83834 8.17148 8.06514Z" fill="#6A6B6C"/>
</svg>
