<svg width="25" height="25" viewBox="0 0 25 25" fill="none" xmlns="http://www.w3.org/2000/svg">
<path fill-rule="evenodd" clip-rule="evenodd" d="M13.0715 3.76377C13.0715 3.26671 12.6685 2.86377 12.1715 2.86377C11.6744 2.86377 11.2715 3.26671 11.2715 3.76377V4.87285C10.032 4.9877 8.91369 5.34155 8.03642 5.90642C6.9435 6.61013 6.17393 7.68737 6.17393 9.02282C6.17393 9.77885 6.27995 10.8861 7.19866 11.8593C7.99148 12.6991 9.2782 13.3208 11.2715 13.6486V19.0555C9.25489 18.856 8.31211 17.991 7.81916 17.2629C7.54047 16.8514 6.9809 16.7436 6.56932 17.0223C6.15773 17.301 6.05 17.8606 6.32868 18.2721C7.15196 19.488 8.62932 20.6475 11.2715 20.8625V21.9667C11.2715 22.4637 11.6744 22.8666 12.1715 22.8666C12.6685 22.8666 13.0715 22.4637 13.0715 21.9667V20.857C14.311 20.7422 15.4293 20.3885 16.3066 19.8238C17.3996 19.1203 18.1692 18.0433 18.1692 16.7078C18.1692 15.9517 18.0632 14.8444 17.1445 13.8713C16.3516 13.0315 15.0649 12.4098 13.0715 12.0821V6.68113C15.0518 6.90709 16.0326 7.86118 16.5656 8.5215C16.8778 8.90828 17.4444 8.96872 17.8312 8.65652C18.218 8.34431 18.2784 7.77768 17.9662 7.39091C17.1892 6.42829 15.7526 5.11555 13.0715 4.87168V3.76377ZM11.2715 6.68233C10.342 6.78953 9.56996 7.05984 9.01088 7.41983C8.28771 7.88547 7.97393 8.45374 7.97393 9.02282C7.97393 9.6054 8.0572 10.1466 8.50755 10.6237C8.90602 11.0458 9.69258 11.5234 11.2715 11.821V6.68233ZM13.0715 13.9096V19.0475C14.0011 18.9404 14.7732 18.6702 15.3324 18.3103C16.0555 17.8448 16.3692 17.2768 16.3692 16.7078C16.3692 16.1252 16.2859 15.584 15.8356 15.1069C15.4371 14.6849 14.6505 14.2072 13.0715 13.9096Z" fill="white"/>
</svg>
