<svg width="25" height="25" viewBox="0 0 25 25" fill="none" xmlns="http://www.w3.org/2000/svg">
<path d="M6.04514 8.76154C5.87113 8.85352 5.68288 8.66527 5.77486 8.49126L6.7667 6.61489L5.77486 4.73852C5.68288 4.56452 5.87113 4.37626 6.04514 4.46824L7.92151 5.46008L9.79788 4.46824C9.97189 4.37626 10.1601 4.56452 10.0682 4.73852L9.07632 6.61489L10.0682 8.49126C10.1601 8.66527 9.97189 8.85352 9.79788 8.76154L7.92151 7.7697L6.04514 8.76154Z" fill="#6A6B6C"/>
<path d="M17.9215 7.2697L16.0451 8.26154C15.8711 8.35352 15.6829 8.16527 15.7749 7.99126L16.7667 6.11489L15.7749 4.23852C15.6829 4.06452 15.8711 3.87626 16.0451 3.96824L17.9215 4.96008L19.7979 3.96824C19.9719 3.87626 20.1601 4.06452 20.0682 4.23852L19.0763 6.11489L20.0682 7.99126C20.1601 8.16527 19.9719 8.35352 19.7979 8.26154L17.9215 7.2697Z" fill="#6A6B6C"/>
<path d="M16.0451 17.7615C15.8711 17.8535 15.6829 17.6653 15.7749 17.4913L16.7667 15.6149L15.7749 13.7385C15.6829 13.5645 15.8711 13.3763 16.0451 13.4682L17.9215 14.4601L19.7979 13.4682C19.9719 13.3763 20.1601 13.5645 20.0682 13.7385L19.0763 15.6149L20.0682 17.4913C20.1601 17.6653 19.9719 17.8535 19.7979 17.7615L17.9215 16.7697L16.0451 17.7615Z" fill="#6A6B6C"/>
<path fill-rule="evenodd" clip-rule="evenodd" d="M13.8079 10.7285C14.1594 11.08 14.1594 11.6498 13.8079 12.0013L4.30788 21.5013C3.95641 21.8528 3.38656 21.8528 3.03509 21.5013C2.68362 21.1498 2.68362 20.58 3.03509 20.2285L12.5351 10.7285C12.8866 10.377 13.4564 10.377 13.8079 10.7285Z" fill="#6A6B6C"/>
</svg>
