<svg width="25" height="25" viewBox="0 0 25 25" fill="none" xmlns="http://www.w3.org/2000/svg">
<path d="M19.0955 4.97036C18.9598 4.56323 18.3839 4.56323 18.2482 4.97036L17.7908 6.34255C17.6427 6.78703 17.2939 7.13582 16.8494 7.28398L15.4772 7.74137C15.0701 7.87708 15.0701 8.45295 15.4772 8.58866L16.8494 9.04605C17.2939 9.19421 17.6427 9.543 17.7908 9.98748L18.2482 11.3597C18.3839 11.7668 18.9598 11.7668 19.0955 11.3597L19.5529 9.98748C19.7011 9.543 20.0498 9.19421 20.4943 9.04605L21.8665 8.58866C22.2736 8.45295 22.2736 7.87708 21.8665 7.74137L20.4943 7.28398C20.0498 7.13582 19.7011 6.78703 19.5529 6.34255L19.0955 4.97036Z" fill="#6A6B6C"/>
<path fill-rule="evenodd" clip-rule="evenodd" d="M5.97187 11.0105C5.97187 7.3528 8.76617 4.46504 12.1719 4.46504C13.2468 4.46504 14.2518 4.74684 15.1277 5.2446C15.5599 5.49018 16.1093 5.33894 16.3549 4.90679C16.6004 4.47464 16.4492 3.92522 16.017 3.67964C14.8775 3.03209 13.5671 2.66504 12.1719 2.66504C7.68869 2.66504 4.17188 6.44416 4.17188 11.0105C4.17188 13.3761 4.95245 14.9108 5.89178 16.1102C6.24983 16.5674 6.63883 16.9845 6.98566 17.3564C7.07302 17.45 7.15769 17.5408 7.23853 17.6287C7.62296 18.0464 7.93635 18.4131 8.17247 18.7973L8.58436 20.525C8.64181 20.7661 8.6955 20.9913 8.75501 21.1793C8.8201 21.3848 8.90869 21.6025 9.06218 21.8108C9.28556 22.1139 9.58632 22.3514 9.93299 22.4984C10.1712 22.5994 10.4036 22.6351 10.6186 22.6508C10.8152 22.6651 11.0467 22.6651 11.2945 22.665H13.0492C13.297 22.6651 13.5286 22.6651 13.7252 22.6508C13.9402 22.6351 14.1725 22.5994 14.4108 22.4984C14.7574 22.3514 15.0582 22.1139 15.2816 21.8108C15.4351 21.6025 15.5237 21.3848 15.5887 21.1793C15.6482 20.9913 15.7019 20.7661 15.7594 20.5251L16.1713 18.7971C16.4697 18.311 16.877 17.8733 17.3829 17.3297L17.5369 17.1642C18.1268 16.5284 18.8 15.7762 19.3132 14.7851C19.5418 14.3437 19.3693 13.8006 18.9279 13.572C18.4865 13.3435 17.9434 13.516 17.7148 13.9574C17.3225 14.715 16.797 15.3152 16.2175 15.9397C16.1624 15.9991 16.1063 16.0592 16.0494 16.1201C15.6182 16.5818 15.1447 17.0888 14.7597 17.665H13.0719V15.6108L14.8173 14.2809C15.2127 13.9796 15.289 13.4149 14.9877 13.0196C14.6865 12.6242 14.1218 12.5479 13.7264 12.8491L12.1719 14.0336L10.6173 12.8491C10.2219 12.5479 9.65719 12.6242 9.35596 13.0196C9.05472 13.415 9.13104 13.9797 9.52642 14.2809L11.2719 15.6108V17.665H9.58424C9.27355 17.1993 8.91082 16.7877 8.56303 16.4098C8.46579 16.3041 8.37011 16.2014 8.27592 16.1003C7.93545 15.735 7.61437 15.3904 7.30892 15.0004C6.57186 14.0593 5.97187 12.9053 5.97187 11.0105ZM10.3291 20.0816C10.3949 20.3576 10.4337 20.518 10.471 20.6358C10.4939 20.708 10.5082 20.737 10.5124 20.7446C10.5438 20.7866 10.5857 20.8197 10.6338 20.8405C10.6422 20.8428 10.6738 20.85 10.7492 20.8555C10.8725 20.8645 11.0375 20.865 11.3213 20.865H13.0225C13.3062 20.865 13.4712 20.8645 13.5945 20.8555C13.67 20.85 13.7016 20.8428 13.7099 20.8405C13.7581 20.8197 13.7999 20.7866 13.8313 20.7446C13.8356 20.737 13.8499 20.708 13.8727 20.6358C13.91 20.518 13.9489 20.3576 14.0147 20.0816L14.1617 19.465H10.1821L10.3291 20.0816Z" fill="#6A6B6C"/>
</svg>
