<svg width="24" height="25" viewBox="0 0 24 25" fill="none" xmlns="http://www.w3.org/2000/svg">
<path d="M7.99961 17.0201C8.55189 17.0201 8.99961 16.5724 8.99961 16.0201C8.99961 15.4678 8.55189 15.0201 7.99961 15.0201C7.44732 15.0201 6.99961 15.4678 6.99961 16.0201C6.99961 16.5724 7.44732 17.0201 7.99961 17.0201Z" fill="white"/>
<path fill-rule="evenodd" clip-rule="evenodd" d="M17.6996 2.12012C17.4593 2.12012 17.2291 2.21618 17.06 2.38693L10.2603 9.25531C9.85352 9.16669 9.43159 9.12012 8.99961 9.12012C5.74113 9.12012 3.09961 11.7616 3.09961 15.0201C3.09961 18.2786 5.74113 20.9201 8.99961 20.9201C12.2581 20.9201 14.8996 18.2786 14.8996 15.0201C14.8996 14.5846 14.8307 14.0498 14.7326 13.5573C14.6905 13.346 14.6405 13.1295 14.5834 12.9201H15.9996C16.4967 12.9201 16.8996 12.5172 16.8996 12.0201V10.4201H17.9996C18.4967 10.4201 18.8996 10.0172 18.8996 9.52012V7.92012H19.9996C20.4967 7.92012 20.8996 7.51717 20.8996 7.02012V3.02012C20.8996 2.52306 20.4967 2.12012 19.9996 2.12012H17.6996ZM11.1722 10.8927L18.0751 3.92012H19.0996V6.12012H17.9996C17.5026 6.12012 17.0996 6.52306 17.0996 7.02012V8.62012H15.9996C15.5026 8.62012 15.0996 9.02306 15.0996 9.52012V11.1201H13.9996C13.7609 11.1201 13.532 11.2149 13.3632 11.3837L12.8632 11.8837C12.6014 12.1456 12.5266 12.5411 12.6749 12.8805C12.772 13.1026 12.8817 13.4792 12.9673 13.909C13.0523 14.3356 13.0996 14.7446 13.0996 15.0201C13.0996 17.2845 11.264 19.1201 8.99961 19.1201C6.73524 19.1201 4.89961 17.2845 4.89961 15.0201C4.89961 12.7557 6.73524 10.9201 8.99961 10.9201C9.43967 10.9201 9.86186 10.9891 10.2569 11.1162C10.5798 11.2201 10.9336 11.1337 11.1722 10.8927Z" fill="white"/>
</svg>
