<svg width="20" height="20" viewBox="0 0 20 20" fill="none" xmlns="http://www.w3.org/2000/svg">
<path d="M17.5 1.23953H2.5C1.80833 1.23953 1.25 1.8062 1.25 2.49787V17.4895C1.25 18.1812 1.80833 18.7479 2.5 18.7479H17.5C18.1833 18.7479 18.75 18.1812 18.75 17.4895V2.48953C18.75 1.79787 18.1833 1.2312 17.5 1.2312V1.23953ZM6.54167 16.2395H3.94167V7.88953H6.54167V16.2395ZM5.24167 6.73953C4.84384 6.73953 4.46231 6.5815 4.18101 6.30019C3.8997 6.01889 3.74167 5.63736 3.74167 5.23953C3.74167 4.84171 3.8997 4.46018 4.18101 4.17887C4.46231 3.89757 4.84384 3.73953 5.24167 3.73953C5.63949 3.73953 6.02102 3.89757 6.30233 4.17887C6.58363 4.46018 6.74167 4.84171 6.74167 5.23953C6.74167 5.63736 6.58363 6.01889 6.30233 6.30019C6.02102 6.5815 5.63949 6.73953 5.24167 6.73953ZM16.2583 16.2395H13.675V12.1729C13.675 11.2062 13.65 9.96453 12.3167 9.96453C10.9667 9.96453 10.7583 11.0145 10.7583 12.1062V16.2395H8.175V7.88953H10.6583V9.0312H10.6917C10.9413 8.60509 11.3016 8.25457 11.7345 8.01686C12.1673 7.77916 12.6565 7.66317 13.15 7.6812C15.775 7.6812 16.2583 9.41453 16.2583 11.6645V16.2395Z" fill="#A1A1AA"/>
</svg>
