<svg width="12" height="12" viewBox="0 0 12 12" fill="none" xmlns="http://www.w3.org/2000/svg">
<path d="M0.996707 0.748793C-0.950283 2.89092 0.0896598 6.20574 2.94884 9.07811C5.74718 11.8894 9.21142 12.9404 11.2615 11.033C12.383 9.98941 12.2173 8.14143 10.8318 6.90641L10.7052 6.79887C9.41973 5.75798 7.55397 5.75468 6.41439 6.78081L6.35601 6.83562L6.32287 6.80773C6.19833 6.70161 6.0363 6.55383 5.84058 6.35924L5.64253 6.15794L5.43833 5.94045C5.3771 5.87339 5.3226 5.81184 5.27458 5.756L5.19223 5.65844L5.14588 5.70858C6.27069 4.57859 6.2813 2.56606 5.14976 1.21408C3.89317 -0.28731 1.98713 -0.340901 0.996707 0.748793ZM4.23079 1.98333C5.0168 2.92246 4.92895 4.22776 4.29657 4.86305L4.19796 4.95606C3.7784 5.33349 3.36882 5.55601 4.88548 7.09836C6.52188 8.76247 6.72592 8.17869 7.15221 7.73238C7.82179 7.05972 9.13302 6.99764 10.0344 7.80109C11.0311 8.6896 10.9232 9.71076 10.4452 10.1555C8.966 11.5318 6.13337 10.5786 3.79815 8.23257C1.46293 5.88659 0.426568 3.15788 1.8835 1.55492C2.22173 1.1828 3.28243 0.850209 4.23079 1.98333Z" fill="white"/>
</svg>
