<svg width="25" height="25" viewBox="0 0 25 25" fill="none" xmlns="http://www.w3.org/2000/svg">
<path fill-rule="evenodd" clip-rule="evenodd" d="M14.461 5.19508L14.4846 5.17151L15.3331 4.32298L15.3567 4.29941C15.6335 4.02256 15.8785 3.77754 16.0981 3.59108C16.332 3.39253 16.5957 3.20808 16.9249 3.10111C17.407 2.94449 17.9262 2.94449 18.4082 3.10111C18.7375 3.20808 19.0011 3.39253 19.235 3.59108C19.4546 3.77754 19.6996 4.02256 19.9764 4.29941L20 4.32298L20.8485 5.17151L20.8721 5.19508L20.8722 5.19513C21.149 5.47193 21.394 5.71691 21.5804 5.93654C21.779 6.17043 21.9634 6.43408 22.0704 6.76332C22.227 7.24535 22.227 7.76458 22.0704 8.2466C21.9634 8.57585 21.779 8.8395 21.5804 9.07339C21.394 9.29303 21.149 9.53802 20.8721 9.81484L20.8485 9.83842L20 10.6869L19.9764 10.7105C19.6996 10.9874 19.4546 11.2324 19.235 11.4188C19.0011 11.6174 18.7375 11.8018 18.4082 11.9088C17.9262 12.0654 17.407 12.0654 16.9249 11.9088C16.5957 11.8018 16.332 11.6174 16.0981 11.4188C15.8785 11.2324 15.6335 10.9874 15.3567 10.7105L15.3331 10.6869L14.4846 9.83842L14.461 9.81485L14.461 9.81483L14.461 9.8148C14.1841 9.53799 13.9391 9.29301 13.7527 9.07339C13.5541 8.8395 13.3697 8.57585 13.2627 8.2466C13.1061 7.76458 13.1061 7.24535 13.2627 6.76332C13.3697 6.43408 13.5541 6.17043 13.7527 5.93654C13.9391 5.7169 14.1842 5.47191 14.461 5.19509L14.461 5.19508ZM15.1249 7.10146C14.9986 7.2502 14.9789 7.3063 14.9746 7.31955C14.9355 7.44006 14.9355 7.56987 14.9746 7.69037C14.9789 7.70362 14.9986 7.75972 15.1249 7.90847C15.258 8.06525 15.4499 8.25811 15.7574 8.56562L16.6059 9.41415C16.9134 9.72167 17.1063 9.91353 17.2631 10.0466C17.4118 10.1729 17.4679 10.1926 17.4812 10.1969C17.6017 10.2361 17.7315 10.2361 17.852 10.1969C17.8652 10.1926 17.9213 10.1729 18.0701 10.0466C18.2269 9.91353 18.4197 9.72166 18.7272 9.41415L19.5758 8.56562C19.8833 8.25811 20.0751 8.06525 20.2082 7.90847C20.3345 7.75972 20.3542 7.70362 20.3585 7.69037C20.3977 7.56987 20.3977 7.44006 20.3585 7.31955C20.3542 7.3063 20.3345 7.2502 20.2082 7.10146C20.0751 6.94467 19.8833 6.75182 19.5758 6.4443L18.7272 5.59577C18.4197 5.28826 18.2269 5.09639 18.0701 4.9633C17.9213 4.83702 17.8652 4.81731 17.852 4.81301C17.7315 4.77385 17.6017 4.77385 17.4812 4.81301C17.4679 4.81731 17.4118 4.83702 17.2631 4.9633C17.1063 5.09639 16.9134 5.28826 16.6059 5.59577L15.7574 6.4443C15.4499 6.75182 15.258 6.94467 15.1249 7.10146ZM8.2666 11.405L8.29994 11.405C8.69144 11.405 9.03793 11.405 9.32509 11.3815C9.63088 11.3566 9.94773 11.3005 10.2562 11.1434C10.7078 10.9133 11.0749 10.5461 11.305 10.0945C11.4622 9.78609 11.5182 9.46923 11.5432 9.16345C11.5666 8.8763 11.5666 8.52982 11.5666 8.13833V8.13832V8.13831V8.13829L11.5666 8.10496V6.90496L11.5666 6.87163C11.5666 6.48012 11.5666 6.13363 11.5432 5.84648C11.5182 5.54069 11.4622 5.22384 11.305 4.91539C11.0749 4.4638 10.7078 4.09664 10.2562 3.86655C9.94773 3.70938 9.63088 3.65337 9.32509 3.62839C9.03794 3.60493 8.69145 3.60494 8.29995 3.60496H8.29994L8.2666 3.60496L7.06661 3.60496L7.03327 3.60496H7.03326C6.64176 3.60494 6.29527 3.60493 6.00812 3.62839C5.70233 3.65337 5.38548 3.70938 5.07703 3.86655C4.62544 4.09664 4.25829 4.4638 4.02819 4.91538C3.87102 5.22384 3.81501 5.54069 3.79003 5.84648C3.76657 6.13361 3.76659 6.48008 3.7666 6.87156V6.87163L3.7666 6.90496L3.7666 8.10496L3.7666 8.1383V8.13836C3.76659 8.52984 3.76657 8.87631 3.79003 9.16345C3.81501 9.46923 3.87102 9.78608 4.02819 10.0945C4.25828 10.5461 4.62544 10.9133 5.07703 11.1434C5.38548 11.3005 5.70233 11.3566 6.00812 11.3815C6.29527 11.405 6.64176 11.405 7.03327 11.405L7.0666 11.405H8.2666ZM9.439 9.53957C9.42659 9.54589 9.37298 9.57163 9.17851 9.58752C8.97353 9.60426 8.70149 9.60496 8.2666 9.60496L7.0666 9.60496C6.63171 9.60496 6.35967 9.60426 6.1547 9.58752C5.96022 9.57163 5.90662 9.54589 5.89421 9.53957C5.78131 9.48204 5.68952 9.39025 5.632 9.27736C5.62568 9.26494 5.59994 9.21134 5.58405 9.01687C5.5673 8.81189 5.5666 8.53985 5.5666 8.10496L5.5666 6.90496C5.5666 6.47007 5.5673 6.19803 5.58405 5.99305C5.59994 5.79858 5.62568 5.74498 5.632 5.73257C5.68952 5.61967 5.78131 5.52788 5.89421 5.47036C5.90662 5.46403 5.96023 5.4383 6.1547 5.42241C6.35967 5.40566 6.63171 5.40496 7.0666 5.40496H8.2666C8.70149 5.40496 8.97354 5.40566 9.17851 5.42241C9.37298 5.4383 9.42659 5.46403 9.439 5.47036C9.5519 5.52788 9.64368 5.61967 9.70121 5.73257C9.70753 5.74498 9.73327 5.79858 9.74916 5.99305C9.7659 6.19803 9.7666 6.47007 9.7666 6.90496L9.7666 8.10496C9.7666 8.53985 9.7659 8.81189 9.74916 9.01687C9.73327 9.21134 9.70753 9.26494 9.70121 9.27736C9.64368 9.39025 9.5519 9.48204 9.439 9.53957ZM8.2666 21.405L8.29994 21.405H8.30004C8.6915 21.405 9.03796 21.405 9.32509 21.3815C9.63088 21.3566 9.94773 21.3005 10.2562 21.1434C10.7078 20.9133 11.0749 20.5461 11.305 20.0945C11.4622 19.7861 11.5182 19.4692 11.5432 19.1634C11.5666 18.8763 11.5666 18.5298 11.5666 18.1383V18.1383V18.1383V18.1383L11.5666 18.105V16.905L11.5666 16.8716C11.5666 16.4801 11.5666 16.1336 11.5432 15.8465C11.5182 15.5407 11.4622 15.2238 11.305 14.9154C11.0749 14.4638 10.7078 14.0966 10.2562 13.8665C9.94773 13.7094 9.63088 13.6534 9.32509 13.6284C9.03795 13.6049 8.69149 13.6049 8.30001 13.605H8.30001H8.3H8.29994L8.2666 13.605H7.06661L7.03327 13.605H7.03321H7.0332H7.0332C6.64172 13.6049 6.29526 13.6049 6.00812 13.6284C5.70233 13.6534 5.38548 13.7094 5.07703 13.8665C4.62544 14.0966 4.25829 14.4638 4.02819 14.9154C3.87102 15.2238 3.81501 15.5407 3.79003 15.8465C3.76657 16.1336 3.76659 16.4801 3.7666 16.8716V16.8716L3.7666 16.905L3.7666 18.105L3.7666 18.1383V18.1384C3.76659 18.5298 3.76657 18.8763 3.79003 19.1634C3.81501 19.4692 3.87102 19.7861 4.02819 20.0945C4.25828 20.5461 4.62544 20.9133 5.07703 21.1434C5.38548 21.3005 5.70233 21.3566 6.00812 21.3815C6.29525 21.405 6.64171 21.405 7.03317 21.405H7.03327L7.0666 21.405H8.2666ZM9.439 19.5396C9.42659 19.5459 9.37298 19.5716 9.17851 19.5875C8.97353 19.6043 8.70149 19.605 8.2666 19.605H7.0666C6.63171 19.605 6.35967 19.6043 6.1547 19.5875C5.96022 19.5716 5.90662 19.5459 5.89421 19.5396C5.78131 19.482 5.68952 19.3903 5.632 19.2774C5.62568 19.2649 5.59994 19.2113 5.58405 19.0169C5.5673 18.8119 5.5666 18.5399 5.5666 18.105L5.5666 16.905C5.5666 16.4701 5.5673 16.198 5.58405 15.9931C5.59994 15.7986 5.62568 15.745 5.632 15.7326C5.68952 15.6197 5.78131 15.5279 5.89421 15.4704C5.90662 15.464 5.96023 15.4383 6.1547 15.4224C6.35967 15.4057 6.63171 15.405 7.0666 15.405H8.2666C8.70149 15.405 8.97354 15.4057 9.17851 15.4224C9.37298 15.4383 9.42659 15.464 9.439 15.4704C9.5519 15.5279 9.64368 15.6197 9.70121 15.7326C9.70753 15.745 9.73327 15.7986 9.74916 15.9931C9.7659 16.198 9.7666 16.4701 9.7666 16.905L9.7666 18.105C9.7666 18.5399 9.7659 18.8119 9.74916 19.0169C9.73327 19.2113 9.70753 19.2649 9.70121 19.2774C9.64368 19.3903 9.5519 19.482 9.439 19.5396ZM18.2666 21.405L18.2999 21.405H18.3C18.6915 21.405 19.038 21.405 19.3251 21.3815C19.6309 21.3566 19.9477 21.3005 20.2562 21.1434C20.7078 20.9133 21.0749 20.5461 21.305 20.0945C21.4622 19.7861 21.5182 19.4692 21.5432 19.1634C21.5666 18.8763 21.5666 18.5298 21.5666 18.1383L21.5666 18.105V16.905L21.5666 16.8716C21.5666 16.4801 21.5666 16.1336 21.5432 15.8465C21.5182 15.5407 21.4622 15.2238 21.305 14.9154C21.0749 14.4638 20.7078 14.0966 20.2562 13.8665C19.9477 13.7094 19.6309 13.6534 19.3251 13.6284C19.0379 13.6049 18.6915 13.6049 18.3 13.605H18.2999L18.2666 13.605H17.0666L17.0333 13.605H17.0332C16.6417 13.6049 16.2953 13.6049 16.0081 13.6284C15.7023 13.6534 15.3855 13.7094 15.077 13.8665C14.6254 14.0966 14.2583 14.4638 14.0282 14.9154C13.871 15.2238 13.815 15.5407 13.79 15.8465C13.7666 16.1336 13.7666 16.4801 13.7666 16.8716L13.7666 16.905V18.105L13.7666 18.1383C13.7666 18.5298 13.7666 18.8763 13.79 19.1634C13.815 19.4692 13.871 19.7861 14.0282 20.0945C14.2583 20.5461 14.6254 20.9133 15.077 21.1434C15.3855 21.3005 15.7023 21.3566 16.0081 21.3815C16.2952 21.405 16.6417 21.405 17.0332 21.405H17.0333L17.0666 21.405H18.2666ZM19.439 19.5396C19.4266 19.5459 19.373 19.5716 19.1785 19.5875C18.9735 19.6043 18.7015 19.605 18.2666 19.605H17.0666C16.6317 19.605 16.3597 19.6043 16.1547 19.5875C15.9602 19.5716 15.9066 19.5459 15.8942 19.5396C15.7813 19.482 15.6895 19.3903 15.632 19.2774C15.6257 19.2649 15.5999 19.2113 15.5841 19.0169C15.5673 18.8119 15.5666 18.5399 15.5666 18.105V16.905C15.5666 16.4701 15.5673 16.198 15.5841 15.9931C15.5999 15.7986 15.6257 15.745 15.632 15.7326C15.6895 15.6197 15.7813 15.5279 15.8942 15.4704C15.9066 15.464 15.9602 15.4383 16.1547 15.4224C16.3597 15.4057 16.6317 15.405 17.0666 15.405H18.2666C18.7015 15.405 18.9735 15.4057 19.1785 15.4224C19.373 15.4383 19.4266 15.464 19.439 15.4704C19.5519 15.5279 19.6437 15.6197 19.7012 15.7326C19.7075 15.745 19.7333 15.7986 19.7492 15.9931C19.7659 16.198 19.7666 16.4701 19.7666 16.905V18.105C19.7666 18.5399 19.7659 18.8119 19.7492 19.0169C19.7333 19.2113 19.7075 19.2649 19.7012 19.2774C19.6437 19.3903 19.5519 19.482 19.439 19.5396Z" fill="white"/>
</svg>
