<svg width="17" height="17" viewBox="0 0 17 17" fill="none" xmlns="http://www.w3.org/2000/svg">
<path d="M16.5334 6.88025C16.4823 6.71477 16.3856 6.56866 16.2554 6.46013C16.1252 6.35161 15.9673 6.28547 15.8013 6.26997L11.1833 5.83245L9.35718 1.37239C9.29166 1.21263 9.18263 1.07645 9.04363 0.98074C8.90463 0.885033 8.74176 0.834005 8.57523 0.833984C8.40859 0.834003 8.24563 0.885121 8.10661 0.980986C7.96758 1.07685 7.85862 1.21324 7.79327 1.37319L5.96711 5.83245L1.34844 6.27006C1.1827 6.2859 1.02505 6.35215 0.895056 6.4606C0.765057 6.56906 0.668421 6.71494 0.617129 6.88016C0.565433 7.04542 0.561446 7.2229 0.605663 7.3905C0.649881 7.55811 0.740351 7.70845 0.865817 7.82281L4.35648 11.0173L3.3272 15.7487C3.29008 15.9184 3.30163 16.0958 3.36042 16.2587C3.41921 16.4216 3.52264 16.5628 3.65782 16.6648C3.80259 16.7746 3.97691 16.8339 4.15588 16.834C4.30953 16.8338 4.46024 16.7901 4.59187 16.7074L8.57531 14.2231L12.5573 16.7074C12.6999 16.7968 12.8646 16.8405 13.0308 16.833C13.197 16.8254 13.3575 16.7669 13.492 16.6648C13.6272 16.5628 13.7306 16.4215 13.7894 16.2586C13.8482 16.0958 13.8598 15.9184 13.8228 15.7487L12.7935 11.0173L16.2841 7.82353C16.4097 7.70907 16.5003 7.55865 16.5446 7.39093C16.5889 7.22322 16.5851 7.04561 16.5335 6.88016L16.5334 6.88025Z" fill="#FBBF24"/>
</svg>
