<svg width="24" height="25" viewBox="0 0 24 25" fill="none" xmlns="http://www.w3.org/2000/svg">
<path fill-rule="evenodd" clip-rule="evenodd" d="M8.50029 8.98096C8.50029 7.04796 10.0673 5.48096 12.0003 5.48096C13.9333 5.48096 15.5003 7.04796 15.5003 8.98096C15.5003 10.914 13.9333 12.481 12.0003 12.481C10.0673 12.481 8.50029 10.914 8.50029 8.98096ZM12.0003 10.681C11.0614 10.681 10.3003 9.91984 10.3003 8.98096C10.3003 8.04207 11.0614 7.28096 12.0003 7.28096C12.9392 7.28096 13.7003 8.04207 13.7003 8.98096C13.7003 9.91984 12.9392 10.681 12.0003 10.681Z" fill="white"/>
<path fill-rule="evenodd" clip-rule="evenodd" d="M12.0007 13.981C10.4967 13.981 9.07513 14.3346 7.9986 14.996C6.92071 15.6582 6.10068 16.6983 6.10068 18.0357C6.10068 18.8452 6.37915 19.5681 6.95188 20.0785C7.51006 20.5759 8.24573 20.781 9.00068 20.781H15.0007C15.7556 20.781 16.4913 20.5759 17.0495 20.0785C17.6222 19.5681 17.9007 18.8452 17.9007 18.0357C17.9007 16.6983 17.0806 15.6582 16.0028 14.996C14.9262 14.3346 13.5047 13.981 12.0007 13.981ZM7.90068 18.0357C7.90068 17.5184 8.20604 16.9811 8.94084 16.5297C9.67701 16.0774 10.7555 15.781 12.0007 15.781C13.2459 15.781 14.3243 16.0774 15.0605 16.5297C15.7953 16.9811 16.1007 17.5184 16.1007 18.0357C16.1007 18.4215 15.9791 18.6213 15.8519 18.7347C15.7101 18.8611 15.4457 18.981 15.0007 18.981H9.00068C8.55562 18.981 8.29129 18.8611 8.14947 18.7347C8.0222 18.6213 7.90068 18.4215 7.90068 18.0357Z" fill="white"/>
<path d="M5.90371 14.581C5.90371 14.0839 5.50077 13.681 5.00371 13.681C2.99696 13.681 1.05371 14.957 1.05371 17.0381C1.05371 18.3011 1.92387 19.781 3.66081 19.781C4.15787 19.781 4.56081 19.378 4.56081 18.881C4.56081 18.3839 4.15787 17.981 3.66081 17.981C3.38887 17.981 3.21099 17.8767 3.08548 17.727C2.94563 17.5601 2.85371 17.3102 2.85371 17.0381C2.85371 16.3071 3.59299 15.481 5.00371 15.481C5.50077 15.481 5.90371 15.078 5.90371 14.581Z" fill="white"/>
<path d="M6.31483 6.34003C6.80688 6.26973 7.26277 6.61163 7.33307 7.10369C7.40337 7.59575 7.06147 8.05163 6.56941 8.12193C5.96147 8.20879 5.50054 8.72857 5.50054 9.34742C5.50054 10.0267 6.05554 10.5857 6.75054 10.5857C7.24759 10.5857 7.65054 10.9886 7.65054 11.4857C7.65054 11.9828 7.24759 12.3857 6.75054 12.3857C5.07071 12.3857 3.70054 11.0301 3.70054 9.34742C3.70054 7.81271 4.84017 6.55071 6.31483 6.34003Z" fill="white"/>
<path d="M18.0969 14.581C18.0969 14.0839 18.4998 13.681 18.9969 13.681C21.0036 13.681 22.9469 14.957 22.9469 17.0381C22.9469 18.3011 22.0767 19.781 20.3398 19.781C19.8427 19.781 19.4398 19.378 19.4398 18.881C19.4398 18.3839 19.8427 17.981 20.3398 17.981C20.6117 17.981 20.7896 17.8767 20.9151 17.727C21.055 17.5601 21.1469 17.3102 21.1469 17.0381C21.1469 16.3071 20.4076 15.481 18.9969 15.481C18.4998 15.481 18.0969 15.078 18.0969 14.581Z" fill="white"/>
<path d="M17.6863 6.34003C17.1942 6.26973 16.7383 6.61163 16.668 7.10369C16.5977 7.59575 16.9396 8.05163 17.4317 8.12193C18.0396 8.20879 18.5005 8.72857 18.5005 9.34742C18.5005 10.0267 17.9455 10.5857 17.2505 10.5857C16.7535 10.5857 16.3505 10.9886 16.3505 11.4857C16.3505 11.9828 16.7535 12.3857 17.2505 12.3857C18.9304 12.3857 20.3005 11.0301 20.3005 9.34742C20.3005 7.81271 19.1609 6.55071 17.6863 6.34003Z" fill="white"/>
</svg>
