<svg width="50" height="50" viewBox="0 0 50 50" fill="none" xmlns="http://www.w3.org/2000/svg">
<path d="M8.82743 26.061C11.7531 24.4622 15.0189 23.1278 18.0703 21.7866C23.3199 19.5898 28.5903 17.4311 33.9139 15.4213C34.9497 15.0789 36.8108 14.7441 36.9933 16.2669C36.8933 18.4225 36.4823 20.5655 36.2003 22.7085C35.4847 27.4211 34.6575 32.1176 33.8509 36.8148C33.573 38.3794 31.5975 39.1893 30.3334 38.188C27.2956 36.1523 24.2344 34.1363 21.2353 32.0533C20.2529 31.0629 21.1639 29.6407 22.0413 28.9334C24.5433 26.4871 27.1968 24.4087 29.5681 21.8359C30.2078 20.3035 28.3178 21.595 27.6944 21.9907C24.2691 24.3326 20.9275 26.8174 17.3162 28.8755C15.4715 29.883 13.3215 29.0221 11.4776 28.4599C9.8244 27.7808 7.40178 27.0966 8.82727 26.0612L8.82743 26.061Z" fill="white"/>
</svg>
