<svg width="42" height="42" viewBox="0 0 42 42" fill="none" xmlns="http://www.w3.org/2000/svg">
<path d="M21.6998 14C21.6998 13.1302 20.9947 12.425 20.1248 12.425C19.255 12.425 18.5498 13.1302 18.5498 14V21.875C18.5498 22.5316 18.9571 23.1192 19.5718 23.3498L26.5718 25.9748C27.3862 26.2802 28.2941 25.8675 28.5995 25.0531C28.9049 24.2386 28.4923 23.3308 27.6778 23.0253L21.6998 20.7836V14Z" fill="white"/>
<path fill-rule="evenodd" clip-rule="evenodd" d="M20.9998 3.67505C11.4315 3.67505 3.6748 11.4317 3.6748 21C3.6748 30.5684 11.4315 38.325 20.9998 38.325C30.5681 38.325 38.3248 30.5684 38.3248 21C38.3248 11.4317 30.5681 3.67505 20.9998 3.67505ZM6.8248 21C6.8248 13.1714 13.1712 6.82505 20.9998 6.82505C28.8284 6.82505 35.1748 13.1714 35.1748 21C35.1748 28.8287 28.8284 35.175 20.9998 35.175C13.1712 35.175 6.8248 28.8287 6.8248 21Z" fill="white"/>
</svg>
