<svg width="42" height="42" viewBox="0 0 42 42" fill="none" xmlns="http://www.w3.org/2000/svg">
<path fill-rule="evenodd" clip-rule="evenodd" d="M20.9996 15.4001C19.3566 15.4001 18.0246 16.732 18.0246 18.3751C18.0246 20.0181 19.3566 21.3501 20.9996 21.3501C22.6427 21.3501 23.9746 20.0181 23.9746 18.3751C23.9746 16.732 22.6427 15.4001 20.9996 15.4001ZM14.8746 18.3751C14.8746 14.9923 17.6169 12.2501 20.9996 12.2501C24.3824 12.2501 27.1246 14.9923 27.1246 18.3751C27.1246 21.7578 24.3824 24.5001 20.9996 24.5001C17.6169 24.5001 14.8746 21.7578 14.8746 18.3751Z" fill="white"/>
<path fill-rule="evenodd" clip-rule="evenodd" d="M20.9998 3.67505C16.2161 3.67505 11.8827 5.61594 8.74918 8.74942C5.6157 11.8829 3.6748 16.2163 3.6748 21C3.6748 25.7838 5.6157 30.1172 8.74918 33.2507C11.8827 36.3842 16.2161 38.325 20.9998 38.325C25.7835 38.325 30.1169 36.3842 33.2504 33.2507C36.3839 30.1172 38.3248 25.7838 38.3248 21C38.3248 16.2163 36.3839 11.8829 33.2504 8.74942C30.1169 5.61594 25.7835 3.67505 20.9998 3.67505ZM28.669 32.9236C26.5563 31.2635 23.8945 30.275 20.9998 30.275C18.105 30.275 15.4433 31.2635 13.3306 32.9235C15.5416 34.3489 18.1734 35.175 20.9998 35.175C23.8262 35.175 26.458 34.3489 28.669 32.9236ZM10.9766 10.9768C13.5435 8.40991 17.085 6.82505 20.9998 6.82505C24.9146 6.82505 28.4561 8.40991 31.023 10.9768C33.5899 13.5437 35.1748 17.0853 35.1748 21C35.1748 24.8476 33.6439 28.3347 31.1544 30.8902C28.4287 28.5448 24.8788 27.125 20.9998 27.125C17.1208 27.125 13.5709 28.5448 10.8452 30.8902C8.35572 28.3347 6.8248 24.8476 6.8248 21C6.8248 17.0853 8.40967 13.5437 10.9766 10.9768ZM14.8746 18.3751C14.8746 14.9923 17.6169 12.2501 20.9996 12.2501C24.3824 12.2501 27.1246 14.9923 27.1246 18.3751C27.1246 21.7578 24.3824 24.5001 20.9996 24.5001C17.6169 24.5001 14.8746 21.7578 14.8746 18.3751ZM20.9996 15.4001C19.3566 15.4001 18.0246 16.732 18.0246 18.3751C18.0246 20.0181 19.3566 21.3501 20.9996 21.3501C22.6427 21.3501 23.9746 20.0181 23.9746 18.3751C23.9746 16.732 22.6427 15.4001 20.9996 15.4001Z" fill="white"/>
</svg>
