<svg width="24" height="24" viewBox="0 0 24 24" fill="none" xmlns="http://www.w3.org/2000/svg">
<path d="M15.375 8.625C15.375 8.625 11.7975 12.435 10.875 15.375L8.625 13.125M21.375 12C21.375 14.4864 20.3873 16.871 18.6291 18.6291C16.871 20.3873 14.4864 21.375 12 21.375C9.5136 21.375 7.12903 20.3873 5.37087 18.6291C3.61272 16.871 2.625 14.4864 2.625 12C2.625 9.5136 3.61272 7.12903 5.37087 5.37087C7.12903 3.61272 9.5136 2.625 12 2.625C14.4864 2.625 16.871 3.61272 18.6291 5.37087C20.3873 7.12903 21.375 9.5136 21.375 12Z" stroke="white" stroke-opacity="0.6" stroke-width="2.25" stroke-linecap="round" stroke-linejoin="round"/>
</svg>
