<svg width="20" height="20" viewBox="0 0 20 20" fill="none" xmlns="http://www.w3.org/2000/svg">
<path fill-rule="evenodd" clip-rule="evenodd" d="M15.4724 5.76166C15.3086 5.72838 15.1367 5.75396 14.995 5.83654L14.9741 5.84877L11.8434 7.41153H6.33301C5.6911 7.41153 5.12227 7.64945 4.71855 8.01902C4.35058 8.35588 4.08301 8.99757 4.08301 9.57479C4.08301 10.152 4.35055 10.7935 4.71855 11.1304C4.92525 11.3196 5.17522 11.4743 5.45612 11.5802C5.72388 11.6812 6.01974 11.7379 6.33301 11.7379H7.09581H7.78632H9.4433H11.8434L14.9741 13.3008L14.995 13.313C15.0915 13.3692 15.2089 13.4019 15.333 13.4019C15.5147 13.4019 15.6668 13.3347 15.7689 13.2413C15.87 13.1488 15.9163 13.0382 15.9163 12.9301V6.21949C15.9163 6.14425 15.8932 6.06514 15.8417 5.99104C15.7652 5.88106 15.6363 5.79497 15.4724 5.76166ZM14.2621 4.52981C14.7361 4.26148 15.2772 4.19371 15.7716 4.29417C16.2739 4.39626 16.7548 4.67823 17.0738 5.13689C17.2947 5.45458 17.4163 5.83028 17.4163 6.21949V12.9301C17.4163 13.4961 17.1642 13.9958 16.7827 14.3451C16.4022 14.6934 15.8877 14.8995 15.333 14.8995C14.9587 14.8995 14.5881 14.8042 14.2622 14.6198L11.4893 13.2355H9.7081H8.18496H7.05749H6.33301C6.05448 13.2355 5.78227 13.2071 5.51978 13.153C4.82575 13.01 4.19972 12.6873 3.70482 12.2342C2.98704 11.5771 2.58301 10.5144 2.58301 9.57479C2.58301 8.63526 2.98701 7.57232 3.70482 6.91521C4.38689 6.29081 5.31806 5.91394 6.33301 5.91394H11.4893L14.2621 4.52981Z" fill="#9C9C9D"/>
<path fill-rule="evenodd" clip-rule="evenodd" d="M12.4163 6.66274L12.4163 12.4867L10.9163 12.4867L10.9163 6.66274H12.4163Z" fill="#9C9C9D"/>
<path d="M7.31287 14.6815L7.05749 13.2355H6.33301C6.05448 13.2355 5.78227 13.2071 5.51978 13.153L5.83566 14.9416C5.93341 15.4951 6.25692 15.9493 6.68749 16.2365C7.1174 16.5232 7.65846 16.6476 8.20679 16.5511C8.75512 16.4545 9.22096 16.1529 9.52671 15.7367C9.83292 15.3197 9.98132 14.7825 9.88357 14.229L9.7081 13.2355H8.18496L8.40635 14.489C8.42842 14.614 8.39755 14.7415 8.31708 14.8511C8.23614 14.9613 8.10787 15.0478 7.94632 15.0762C7.78477 15.1047 7.6346 15.0672 7.52079 14.9912C7.40764 14.9158 7.33494 14.8065 7.31287 14.6815Z" fill="#9C9C9D"/>
</svg>
