<svg width="20" height="20" viewBox="0 0 20 20" fill="none" xmlns="http://www.w3.org/2000/svg">
<path fill-rule="evenodd" clip-rule="evenodd" d="M9.31667 3.25H10.6833C11.5948 3.25 12.1882 3.25117 12.641 3.28816C13.0763 3.32373 13.248 3.38478 13.34 3.43166C13.6536 3.59144 13.9085 3.84641 14.0683 4.16002C14.1152 4.25201 14.1763 4.42367 14.2118 4.85895C14.2488 5.31175 14.25 5.90517 14.25 6.81667V13.1834C14.25 14.0949 14.2488 14.6883 14.2118 15.1411C14.1763 15.5764 14.1152 15.748 14.0683 15.84C13.9085 16.1536 13.6536 16.4086 13.34 16.5684C13.248 16.6152 13.0763 16.6763 12.641 16.7119C12.1882 16.7489 11.5948 16.75 10.6833 16.75H9.31667C8.40517 16.75 7.81175 16.7489 7.35895 16.7119C6.92367 16.6763 6.75201 16.6152 6.66002 16.5684C6.34641 16.4086 6.09144 16.1536 5.93166 15.84C5.88478 15.748 5.82373 15.5764 5.78816 15.1411C5.75117 14.6883 5.75 14.0949 5.75 13.1834V6.81666C5.75 5.90516 5.75117 5.31175 5.78816 4.85895C5.82373 4.42367 5.88478 4.25201 5.93166 4.16002C6.09144 3.84641 6.34641 3.59144 6.66002 3.43166C6.75201 3.38478 6.92367 3.32373 7.35895 3.28816C7.81175 3.25117 8.40517 3.25 9.31667 3.25ZM4.25 6.81666C4.25 5.04317 4.25 4.15642 4.59515 3.47903C4.89875 2.88318 5.38318 2.39874 5.97903 2.09515C6.65642 1.75 7.54317 1.75 9.31667 1.75H10.6833C12.4568 1.75 13.3436 1.75 14.021 2.09515C14.6168 2.39874 15.1012 2.88318 15.4048 3.47903C15.75 4.15642 15.75 5.04317 15.75 6.81667V13.1834C15.75 14.9569 15.75 15.8436 15.4048 16.521C15.1012 17.1168 14.6168 17.6013 14.021 17.9049C13.3436 18.25 12.4568 18.25 10.6833 18.25H9.31667C7.54317 18.25 6.65642 18.25 5.97903 17.9049C5.38318 17.6013 4.89875 17.1168 4.59515 16.521C4.25 15.8436 4.25 14.9569 4.25 13.1834V6.81666ZM9.37499 13.5C8.96078 13.5 8.62499 13.8358 8.62499 14.25C8.62499 14.6642 8.96078 15 9.37499 15H10.625C11.0392 15 11.375 14.6642 11.375 14.25C11.375 13.8358 11.0392 13.5 10.625 13.5H9.37499Z" fill="#9C9C9D"/>
</svg>
