<svg width="20" height="20" viewBox="0 0 20 20" fill="none" xmlns="http://www.w3.org/2000/svg">
<path fill-rule="evenodd" clip-rule="evenodd" d="M4.16637 4.16637C5.6585 2.67423 7.72203 1.75 10 1.75C12.278 1.75 14.3415 2.67423 15.8336 4.16637C17.3258 5.6585 18.25 7.72203 18.25 10C18.25 11.6108 17.7417 12.7347 16.7748 13.3675C15.881 13.9525 14.7612 14.003 13.7302 13.8935C13.3601 13.8538 12.99 13.8131 12.6197 13.7751C12.0724 13.7374 11.83 13.8919 11.7337 14.0081C11.6375 14.1243 11.5309 14.3912 11.6699 14.9219C11.7129 15.0861 11.7604 15.2368 11.8135 15.4053C11.8411 15.493 11.8703 15.5856 11.9011 15.6874C12.2877 16.9631 11.333 18.25 10 18.25C7.72203 18.25 5.6585 17.3258 4.16637 15.8336C2.67423 14.3415 1.75 12.278 1.75 10C1.75 7.72203 2.67423 5.6585 4.16637 4.16637ZM10 3.25C8.13583 3.25 6.44936 4.0047 5.22703 5.22703C4.0047 6.44936 3.25 8.13583 3.25 10C3.25 11.8642 4.0047 13.5506 5.22703 14.773C6.44936 15.9953 8.13583 16.75 10 16.75C10.3265 16.75 10.5603 16.4348 10.4656 16.1224C10.4449 16.054 10.4213 15.979 10.3964 15.8999C10.3374 15.7123 10.2711 15.5016 10.2189 15.3021C10.0058 14.489 10.0697 13.6656 10.5785 13.0513C11.0873 12.437 11.8843 12.2209 12.7228 12.2787C12.7693 12.2819 13.1073 12.3181 13.7212 12.384L13.8912 12.4022C14.787 12.4983 15.4902 12.4156 15.9534 12.1124C16.3586 11.8472 16.75 11.2958 16.75 10C16.75 8.13583 15.9953 6.44936 14.773 5.22703C13.5506 4.0047 11.8642 3.25 10 3.25Z" fill="#9C9C9D"/>
<path d="M10.8333 6.16667C10.8333 5.52233 11.3557 5 12 5C12.6443 5 13.1667 5.52233 13.1667 6.16667C13.1667 6.811 12.6443 7.33333 12 7.33333C11.3557 7.33333 10.8333 6.811 10.8333 6.16667Z" fill="#9C9C9D"/>
<path d="M13.125 9.5C13.125 8.85567 13.6473 8.33333 14.2917 8.33333C14.936 8.33333 15.4583 8.85567 15.4583 9.5C15.4583 10.1443 14.936 10.6667 14.2917 10.6667C13.6473 10.6667 13.125 10.1443 13.125 9.5Z" fill="#9C9C9D"/>
<path d="M4.54183 9.5C4.54183 8.85567 5.06416 8.33333 5.7085 8.33333C6.35283 8.33333 6.87516 8.85567 6.87516 9.5C6.87516 10.1443 6.35283 10.6667 5.7085 10.6667C5.06416 10.6667 4.54183 10.1443 4.54183 9.5Z" fill="#9C9C9D"/>
<path d="M6.66667 6.16667C6.66667 5.52233 7.189 5 7.83333 5C8.47766 5 9 5.52233 9 6.16667C9 6.811 8.47766 7.33333 7.83333 7.33333C7.189 7.33333 6.66667 6.811 6.66667 6.16667Z" fill="#9C9C9D"/>
</svg>
