<svg width="20" height="20" viewBox="0 0 20 20" fill="none" xmlns="http://www.w3.org/2000/svg">
<path d="M8.333 9.5835C8.333 10.2739 7.77336 10.8335 7.083 10.8335C6.39265 10.8335 5.833 10.2739 5.833 9.5835C5.833 8.89314 6.39265 8.3335 7.083 8.3335C7.77336 8.3335 8.333 8.89314 8.333 9.5835Z" fill="#9C9C9D"/>
<path d="M8.10258 12.8111C8.32782 12.4912 8.7697 12.4145 9.08955 12.6398C9.12802 12.6669 9.16771 12.6923 9.20852 12.7159C9.44068 12.8502 9.7101 12.9273 9.99967 12.9273C10.2892 12.9273 10.5587 12.8502 10.7908 12.7159C10.8316 12.6923 10.8713 12.6669 10.9098 12.6398C11.2296 12.4145 11.6715 12.4912 11.8968 12.8111C12.122 13.1309 12.0453 13.5728 11.7255 13.7981C11.6527 13.8493 11.5776 13.8974 11.5002 13.9422C11.0582 14.1978 10.5449 14.3439 9.99967 14.3439C9.45442 14.3439 8.94114 14.1978 8.49916 13.9422C8.42178 13.8974 8.34663 13.8493 8.27389 13.7981C7.95403 13.5728 7.87734 13.1309 8.10258 12.8111Z" fill="#9C9C9D"/>
<path d="M12.3544 10.3805C12.4333 10.3348 12.5249 10.3085 12.6247 10.3085C12.7245 10.3085 12.8161 10.3348 12.895 10.3805C12.9273 10.3992 12.9577 10.4213 12.9856 10.4462C13.2771 10.7071 13.7249 10.6823 13.9858 10.3908C14.2467 10.0993 14.2219 9.65153 13.9304 9.39063C13.8306 9.30127 13.7214 9.22193 13.6044 9.15424C13.3156 8.9872 12.9802 8.89181 12.6247 8.89181C12.2692 8.89181 11.9338 8.9872 11.645 9.15424C11.528 9.22193 11.4188 9.30127 11.319 9.39063C11.0275 9.65153 11.0027 10.0993 11.2636 10.3908C11.5245 10.6823 11.9723 10.7071 12.2638 10.4462C12.2917 10.4213 12.322 10.3992 12.3544 10.3805Z" fill="#9C9C9D"/>
<path fill-rule="evenodd" clip-rule="evenodd" d="M11.6663 2.50016C11.6663 3.15086 11.2934 3.71446 10.7497 3.98893V5.08348H12.6978C13.3711 5.08347 13.9218 5.08346 14.3694 5.12003C14.8327 5.15788 15.2511 5.23861 15.6418 5.4377C16.2533 5.74929 16.7505 6.24648 17.0621 6.85801C17.2612 7.24875 17.3419 7.66715 17.3798 8.13041C17.4164 8.57797 17.4164 9.12868 17.4163 9.80206V12.6982C17.4164 13.3716 17.4164 13.9223 17.3798 14.3699C17.3419 14.8331 17.2612 15.2515 17.0621 15.6423C16.7505 16.2538 16.2533 16.751 15.6418 17.0626C15.2511 17.2617 14.8327 17.3424 14.3694 17.3803C13.9218 17.4168 13.3711 17.4168 12.6978 17.4168H7.30159C6.62821 17.4168 6.0775 17.4168 5.62994 17.3803C5.16668 17.3424 4.74828 17.2617 4.35754 17.0626C3.74601 16.751 3.24883 16.2538 2.93724 15.6423C2.73815 15.2515 2.65741 14.8331 2.61956 14.3699C2.58299 13.9223 2.583 13.3716 2.58301 12.6982V9.80206C2.583 9.12869 2.58299 8.57797 2.61956 8.13041C2.65741 7.66715 2.73815 7.24875 2.93724 6.85801C3.24883 6.24648 3.74601 5.74929 4.35754 5.4377C4.74828 5.23861 5.16668 5.15788 5.62994 5.12003C6.0775 5.08346 6.62821 5.08347 7.30159 5.08348H9.24969V3.98896C8.70592 3.7145 8.333 3.15088 8.333 2.50016C8.333 1.57969 9.07919 0.833496 9.99967 0.833496C10.9201 0.833496 11.6663 1.57969 11.6663 2.50016ZM5.75209 6.61505C5.38159 6.64532 5.18256 6.70082 5.03853 6.77421C4.70924 6.94199 4.44153 7.20971 4.27375 7.53899C4.20036 7.68303 4.14485 7.88205 4.11458 8.25255C4.08359 8.63181 4.08301 9.12103 4.08301 9.83348V12.6668C4.08301 13.3792 4.08359 13.8685 4.11458 14.2477C4.14485 14.6182 4.20036 14.8173 4.27375 14.9613C4.44153 15.2906 4.70924 15.5583 5.03853 15.7261C5.18256 15.7995 5.38159 15.855 5.75209 15.8852C6.13134 15.9162 6.62057 15.9168 7.33301 15.9168H12.6663C13.3788 15.9168 13.868 15.9162 14.2473 15.8852C14.6178 15.855 14.8168 15.7995 14.9608 15.7261C15.2901 15.5583 15.5578 15.2906 15.7256 14.9613C15.799 14.8173 15.8545 14.6182 15.8848 14.2477C15.9158 13.8685 15.9163 13.3792 15.9163 12.6668V9.83348C15.9163 9.12103 15.9158 8.63181 15.8848 8.25255C15.8545 7.88205 15.799 7.68303 15.7256 7.53899C15.5578 7.20971 15.2901 6.94199 14.9608 6.77421C14.8168 6.70082 14.6178 6.64532 14.2473 6.61505C13.868 6.58406 13.3788 6.58348 12.6663 6.58348H7.33301C6.62057 6.58348 6.13134 6.58406 5.75209 6.61505Z" fill="#9C9C9D"/>
</svg>
