<svg width="20" height="20" viewBox="0 0 20 20" fill="none" xmlns="http://www.w3.org/2000/svg">
<path fill-rule="evenodd" clip-rule="evenodd" d="M3.45455 10C3.45455 9.4131 3.53179 8.84424 3.67667 8.30303H6.94995C6.88525 8.84546 6.84848 9.41227 6.84848 10C6.84848 10.5877 6.88525 11.1545 6.94994 11.697H3.67667C3.53179 11.1558 3.45455 10.5869 3.45455 10ZM7.19737 13.1515H4.26181C5.10387 14.6815 6.54002 15.8384 8.25945 16.3115C7.87494 15.4716 7.47334 14.3997 7.19737 13.1515ZM11.7405 16.3115C13.46 15.8384 14.8961 14.6815 15.7382 13.1515H12.8026C12.5267 14.3997 12.1251 15.4716 11.7405 16.3115ZM11.3091 13.1515C10.9513 14.6084 10.4145 15.7802 10 16.544C9.58555 15.7802 9.04869 14.6084 8.69092 13.1515H11.3091ZM11.584 11.697H8.41599C8.34438 11.1571 8.30303 10.5899 8.30303 10C8.30303 9.41012 8.34438 8.84295 8.41599 8.30303H11.584C11.6556 8.84295 11.697 9.41012 11.697 10C11.697 10.5899 11.6556 11.1571 11.584 11.697ZM13.0501 11.697H16.3233C16.4682 11.1558 16.5455 10.5869 16.5455 10C16.5455 9.4131 16.4682 8.84424 16.3233 8.30303H13.0501C13.1147 8.84546 13.1515 9.41227 13.1515 10C13.1515 10.5877 13.1148 11.1545 13.0501 11.697ZM12.8026 6.84848H15.7382C14.8961 5.31853 13.46 4.16159 11.7405 3.68848C12.125 4.52838 12.5266 5.60028 12.8026 6.84848ZM8.25948 3.68849C6.54003 4.1616 5.10387 5.31853 4.26181 6.84848H7.19738C7.47336 5.60028 7.87496 4.52839 8.25948 3.68849ZM8.69093 6.84848H11.3091C10.9513 5.39162 10.4144 4.21985 10 3.45602C9.58555 4.21985 9.0487 5.39162 8.69093 6.84848ZM10 2C5.58172 2 2 5.58172 2 10C2 14.4183 5.58172 18 10 18C14.4183 18 18 14.4183 18 10C18 5.58172 14.4183 2 10 2Z" fill="#9C9C9D"/>
</svg>
