<svg width="24" height="24" viewBox="0 0 24 24" fill="none" xmlns="http://www.w3.org/2000/svg">
<path fill-rule="evenodd" clip-rule="evenodd" d="M12.5541 4.69378C12.3496 4.19966 11.6497 4.19966 11.4453 4.69378L9.83131 8.59422C9.70012 8.91128 9.40005 9.12615 9.05764 9.14824L4.93242 9.41438C4.39837 9.44884 4.17319 10.1123 4.57594 10.4647L7.84235 13.3228C8.09443 13.5434 8.20316 13.8857 8.12457 14.2113L7.19481 18.0631C7.07109 18.5757 7.62118 18.9871 8.07789 18.7236L11.5499 16.7205C11.8283 16.56 12.1711 16.56 12.4494 16.7205L15.9215 18.7236C16.3782 18.9871 16.9283 18.5757 16.8046 18.0632L15.8748 14.2113C15.7962 13.8857 15.905 13.5434 16.157 13.3228L19.4234 10.4647C19.8262 10.1123 19.601 9.44884 19.067 9.41438L14.9418 9.14824C14.5993 9.12615 14.2993 8.91128 14.1681 8.59422L12.5541 4.69378ZM9.78205 4.00555C10.5999 2.02908 13.3995 2.02907 14.2173 4.00555L15.617 7.38806L19.1829 7.61811C21.3191 7.75593 22.2198 10.4097 20.6088 11.8193L17.7524 14.3186L18.5543 17.6408C19.0492 19.691 16.8488 21.3367 15.022 20.2828L11.9997 18.5391L8.97739 20.2828C7.15056 21.3367 4.95019 19.691 5.44506 17.6408L6.24697 14.3186L3.39064 11.8193C1.77963 10.4097 2.68032 7.75593 4.81653 7.61811L8.3824 7.38806L9.78205 4.00555Z" fill="white"/>
</svg>
