<svg width="24" height="24" viewBox="0 0 24 24" fill="none" xmlns="http://www.w3.org/2000/svg">
<path fill-rule="evenodd" clip-rule="evenodd" d="M7.61112 4.80008C7.96653 4.80008 8.017 4.80448 8.05657 4.81275C8.11739 4.82544 8.17587 4.84751 8.22992 4.87816C8.26509 4.8981 8.30589 4.92814 8.5727 5.16293L9.72554 6.17743L9.77148 6.21791C9.97693 6.39912 10.1736 6.5726 10.4045 6.7003C10.607 6.81225 10.8245 6.89434 11.0505 6.94403C11.3082 7.00072 11.5704 7.00042 11.8444 7.00011L11.9056 7.00006H16.3C17.1549 7.00006 17.742 7.00076 18.1971 7.03794C18.6417 7.07427 18.8805 7.14088 19.0534 7.22895C19.4485 7.43028 19.7698 7.75154 19.9711 8.14668C20.0592 8.31953 20.1258 8.55835 20.1621 9.00295C20.1993 9.45806 20.2 10.0451 20.2 10.9001V14.3001C20.2 15.155 20.1993 15.7421 20.1621 16.1972C20.1258 16.6418 20.0592 16.8806 19.9711 17.0534C19.7698 17.4486 19.4485 17.7698 19.0534 17.9712C18.8805 18.0592 18.6417 18.1259 18.1971 18.1622C17.742 18.1994 17.1549 18.2001 16.3 18.2001H14.3029C13.8059 18.2001 13.4029 18.603 13.4029 19.1001C13.4029 19.5971 13.8059 20.0001 14.3029 20.0001H16.3377C17.1457 20.0001 17.8066 20.0001 18.3437 19.9562C18.8996 19.9108 19.4016 19.8139 19.8705 19.575C20.6044 19.2011 21.201 18.6045 21.5749 17.8706C21.8138 17.4017 21.9107 16.8997 21.9561 16.3437C22 15.8067 22 15.1458 22 14.3378V10.8624C22 10.0543 22 9.39345 21.9561 8.85638C21.9107 8.30046 21.8138 7.79838 21.5749 7.3295C21.201 6.59566 20.6044 5.99904 19.8705 5.62513C19.4016 5.38622 18.8996 5.28934 18.3437 5.24392C17.8066 5.20004 17.1457 5.20005 16.3377 5.20006H16.3377L11.9056 5.20006C11.5316 5.20006 11.4787 5.19519 11.4371 5.18605C11.3806 5.17363 11.3262 5.15311 11.2756 5.12512C11.2384 5.10453 11.1954 5.07318 10.9147 4.82613L9.76182 3.81164L9.71815 3.77315C9.52284 3.60091 9.33593 3.43607 9.11781 3.31238C8.90162 3.18979 8.6677 3.10152 8.42441 3.05073C8.17895 2.99949 7.92974 2.99976 7.66933 3.00004L7.61112 3.00008L7.57533 3.00008C6.80755 3.00007 6.17961 3.00007 5.66848 3.03979C5.13968 3.08089 4.66112 3.16849 4.21077 3.3849C3.41243 3.76855 2.76846 4.41251 2.38482 5.21085C2.1684 5.6612 2.08081 6.13976 2.03971 6.66856C1.99998 7.17969 1.99999 7.80762 2 8.57539V8.57541V13.903C2 14.4 2.40294 14.803 2.9 14.803C3.39706 14.803 3.8 14.4 3.8 13.903V8.6112C3.8 7.79892 3.80063 7.24116 3.8343 6.80804C3.8672 6.38465 3.92761 6.15613 4.00721 5.9905C4.21379 5.56062 4.56054 5.21387 4.99041 5.00729C5.15605 4.9277 5.38457 4.86728 5.80795 4.83438C6.24108 4.80072 6.79884 4.80008 7.61112 4.80008ZM2.90095 16.6001C2.4039 16.6001 2.00095 17.003 2.00095 17.5001C2.00095 17.9971 2.4039 18.4001 2.90095 18.4001H8.92348L7.26426 20.0593C6.91279 20.4107 6.91279 20.9806 7.26427 21.3321C7.61574 21.6835 8.18559 21.6835 8.53706 21.3321L11.7327 18.1365C12.0838 17.7853 12.0842 17.2161 11.7335 16.8645L8.54203 13.6645C8.19103 13.3126 7.62118 13.3118 7.26924 13.6628C6.9173 14.0138 6.91654 14.5837 7.26755 14.9356L8.92755 16.6001H2.90095Z" fill="white"/>
</svg>
