<svg width="24" height="24" viewBox="0 0 24 24" fill="none" xmlns="http://www.w3.org/2000/svg">
<path d="M7.45075 13.3231C7.0205 13.0742 6.46994 13.2212 6.22105 13.6515C5.97216 14.0817 6.11919 14.6323 6.54944 14.8812C7.40501 15.3761 8.03689 16.212 8.2609 17.1993C8.37089 17.684 8.85301 17.9878 9.33775 17.8778C9.82248 17.7678 10.1263 17.2857 10.0163 16.8009C9.67891 15.3142 8.7302 14.0632 7.45075 13.3231Z" fill="white"/>
<path d="M9.53976 6.02745C9.14197 5.72941 8.57789 5.81026 8.27984 6.20804C7.98648 6.59957 7.52168 6.8501 6.99812 6.8501C6.50106 6.8501 6.09812 7.25304 6.09812 7.7501C6.09812 8.24715 6.50106 8.6501 6.99812 8.6501C8.11252 8.6501 9.10173 8.11301 9.72035 7.28737C10.0184 6.88958 9.93754 6.3255 9.53976 6.02745Z" fill="white"/>
<path d="M15.9265 6.87266C15.8561 6.38061 15.4002 6.03878 14.9081 6.10917C14.4161 6.17955 14.0742 6.63549 14.1446 7.12754C14.3899 8.84208 15.6203 10.2347 17.2434 10.7178C17.7198 10.8596 18.2209 10.5883 18.3627 10.1119C18.5045 9.63548 18.2332 9.13434 17.7568 8.99255C16.798 8.70719 16.0708 7.88188 15.9265 6.87266Z" fill="white"/>
<path fill-rule="evenodd" clip-rule="evenodd" d="M2.1001 14.0001C2.1001 13.1308 2.35221 12.3203 2.7873 11.6379C2.34974 10.8575 2.1001 9.95713 2.1001 9.0001C2.1001 6.36586 3.98566 4.17308 6.48122 3.69623C7.36591 2.43043 8.83556 1.6001 10.5001 1.6001C11.0221 1.6001 11.5265 1.68204 12.0001 1.83421C12.4737 1.68204 12.9781 1.6001 13.5001 1.6001C15.1646 1.6001 16.6343 2.43043 17.519 3.69623C20.0145 4.17308 21.9001 6.36586 21.9001 9.0001C21.9001 9.08551 21.8981 9.17047 21.8942 9.25493C21.8541 10.1177 21.6115 10.9276 21.2129 11.6382C21.6477 12.3206 21.9001 13.1315 21.9001 14.0001C21.9001 15.5524 21.0964 16.9155 19.8845 17.6984C19.8948 17.7977 19.9001 17.8984 19.9001 18.0001C19.9001 19.6017 18.6017 20.9001 17.0001 20.9001C16.9408 20.9001 16.8818 20.8983 16.8234 20.8948C16.2134 21.802 15.1774 22.4001 14.0001 22.4001C13.2524 22.4001 12.561 22.1583 12.0001 21.7498C11.4392 22.1583 10.7478 22.4001 10.0001 22.4001C8.82283 22.4001 7.78673 21.802 7.17678 20.8948C7.11828 20.8983 7.05937 20.9001 7.0001 20.9001C5.39847 20.9001 4.1001 19.6017 4.1001 18.0001C4.1001 17.8984 4.10537 17.7977 4.11567 17.6984C2.90381 16.9155 2.1001 15.5524 2.1001 14.0001ZM7.80306 4.9703C8.33756 4.03059 9.34577 3.4001 10.5001 3.4001C10.7058 3.4001 10.9064 3.42002 11.1001 3.45794V20.1621C10.8127 20.4345 10.4258 20.6001 10.0001 20.6001C9.31795 20.6001 8.73336 20.1728 8.50363 19.5682C8.33029 19.112 7.82493 18.8771 7.36441 19.0386C7.25155 19.0782 7.12934 19.1001 7.0001 19.1001C6.39258 19.1001 5.9001 18.6076 5.9001 18.0001C5.9001 17.8487 5.9302 17.7065 5.9839 17.5776C6.17497 17.119 5.95825 16.5923 5.49973 16.4009C4.55873 16.0082 3.9001 15.08 3.9001 14.0001C3.9001 12.5642 5.06416 11.4001 6.5001 11.4001C6.90051 11.4001 7.27741 11.49 7.61391 11.6498C8.06289 11.8631 8.59975 11.6721 8.81303 11.2231C9.02632 10.7741 8.83525 10.2373 8.38628 10.024C7.81353 9.7519 7.17329 9.6001 6.5001 9.6001C5.63039 9.6001 4.81962 9.85243 4.137 10.2879C3.98392 9.88835 3.9001 9.45443 3.9001 9.0001C3.9001 7.14199 5.30855 5.61166 7.11552 5.42032C7.4038 5.3898 7.65973 5.22228 7.80306 4.9703ZM12.9001 20.1621C13.1875 20.4345 13.5744 20.6001 14.0001 20.6001C14.4177 20.6001 14.7987 20.44 15.0841 20.1771C14.4808 19.6457 14.1001 18.8673 14.1001 18.0001C14.1001 17.503 14.503 17.1001 15.0001 17.1001C15.4972 17.1001 15.9001 17.503 15.9001 18.0001C15.9001 18.5995 16.3796 19.087 16.9759 19.0998L17.0001 19.1001C17.6076 19.1001 18.1001 18.6076 18.1001 18.0001C18.1001 17.8487 18.07 17.7065 18.0163 17.5776C17.8252 17.119 18.0419 16.5923 18.5005 16.4009C19.4415 16.0082 20.1001 15.08 20.1001 14.0001C20.1001 13.7015 20.05 13.415 19.9576 13.1483C19.0209 13.9298 17.8154 14.4001 16.5001 14.4001C16.003 14.4001 15.6001 13.9972 15.6001 13.5001C15.6001 13.003 16.003 12.6001 16.5001 12.6001C18.4311 12.6001 20.0071 11.0797 20.0961 9.17074C20.0988 9.1142 20.1001 9.05731 20.1001 9.0001C20.1001 7.14199 18.6916 5.61166 16.8847 5.42032C16.5964 5.3898 16.3405 5.22228 16.1971 4.9703C15.6626 4.03059 14.6544 3.4001 13.5001 3.4001C13.2943 3.4001 13.0938 3.42002 12.9001 3.45794V20.1621Z" fill="white"/>
</svg>
